<?xml version="1.0" standalone="no"?>
<!DOCTYPE svg PUBLIC "-//W3C//DTD SVG 20010904//EN"
 "http://www.w3.org/TR/2001/REC-SVG-20010904/DTD/svg10.dtd">
<svg version="1.0" xmlns="http://www.w3.org/2000/svg"
 width="479.000000pt" height="521.000000pt" viewBox="0 0 479.000000 521.000000"
 preserveAspectRatio="xMidYMid meet">

<g transform="translate(0.000000,521.000000) scale(0.100000,-0.100000)"
fill="#000000" stroke="none">
<path d="M3471 5187 c-95 -36 -165 -144 -165 -254 0 -61 5 -72 91 -241 295
-576 438 -1036 515 -1652 17 -137 16 -714 -1 -865 -65 -568 -205 -1062 -424
-1490 -39 -77 -94 -184 -121 -238 -79 -154 -76 -251 10 -346 53 -59 76 -72
155 -91 99 -22 199 20 271 115 37 48 178 323 251 490 222 501 350 1008 407
1604 14 147 14 610 0 771 -44 508 -156 981 -338 1435 -161 403 -319 697 -400
747 -29 18 -54 23 -127 25 -55 2 -103 -2 -124 -10z"/>
<path d="M2466 4665 c-89 -31 -171 -154 -170 -255 0 -50 11 -76 117 -287 174
-346 240 -531 307 -861 71 -353 79 -821 20 -1177 -60 -360 -151 -634 -335
-1013 -57 -117 -107 -232 -110 -255 -13 -92 57 -217 149 -262 57 -28 149 -34
220 -13 54 16 140 103 185 189 178 332 276 569 360 869 81 293 120 563 128
895 13 512 -59 960 -227 1415 -43 118 -96 241 -162 375 -127 260 -205 362
-290 383 -62 16 -144 14 -192 -3z"/>
<path d="M1480 4161 c-48 -15 -87 -40 -123 -80 -60 -66 -71 -97 -72 -186 l0
-80 68 -123 c136 -247 229 -497 267 -717 39 -230 34 -575 -10 -795 -40 -198
-137 -456 -245 -652 -76 -139 -89 -177 -82 -242 7 -70 34 -122 92 -175 57 -53
100 -71 166 -71 76 0 125 18 180 67 58 53 94 110 193 309 177 356 246 619 266
1014 11 210 3 452 -21 600 -15 96 -63 291 -99 405 -55 170 -184 452 -264 578
-74 115 -212 179 -316 148z"/>
<path d="M454 3646 c-56 -26 -118 -91 -135 -143 -6 -19 -9 -67 -7 -106 4 -68
7 -77 67 -171 81 -129 129 -225 152 -306 44 -153 48 -429 9 -597 -23 -98 -87
-234 -167 -357 -55 -85 -58 -93 -61 -162 -3 -60 0 -82 17 -118 49 -101 164
-165 276 -153 108 11 167 63 273 240 128 214 205 425 223 605 14 137 6 411
-15 522 -56 299 -257 678 -398 751 -55 28 -167 26 -234 -5z"/>
</g>
</svg>
